<svg aria-hidden="true" style="position: absolute; width: 0; height: 0; overflow: hidden;" version="1.1"
    xmlns="http://www.w3.org/2000/svg" xmlns:xlink="http://www.w3.org/1999/xlink">
    <defs>
        <symbol id="icon-airbnb" viewBox="0 0 30 32">
            <path fill="#e0565b" style="fill: var(--color5, #e0565b)"
                d="M27.202 25.681c-0.218 1.631-1.309 3.042-2.835 3.67-0.748 0.313-1.558 0.408-2.368 0.313-0.779-0.094-1.558-0.345-2.368-0.815-1.122-0.628-2.244-1.6-3.552-3.042 2.057-2.54 3.303-4.861 3.77-6.931 0.218-0.972 0.249-1.851 0.156-2.666-0.125-0.784-0.405-1.506-0.842-2.133-0.966-1.411-2.586-2.227-4.393-2.227s-3.428 0.847-4.394 2.227c-0.436 0.627-0.716 1.349-0.841 2.133-0.124 0.816-0.093 1.725 0.156 2.666 0.467 2.069 1.745 4.422 3.77 6.962-1.278 1.443-2.431 2.415-3.553 3.043-0.81 0.471-1.589 0.721-2.368 0.815-0.803 0.090-1.616-0.017-2.368-0.313-1.527-0.627-2.617-2.039-2.836-3.67-0.093-0.784-0.031-1.568 0.281-2.446 0.093-0.314 0.249-0.627 0.405-1.003 0.218-0.502 0.468-1.035 0.717-1.568l0.031-0.062c2.15-4.673 4.456-9.44 6.855-14.082l0.093-0.189c0.249-0.47 0.498-0.972 0.748-1.442 0.249-0.502 0.53-0.972 0.872-1.38 0.654-0.753 1.527-1.16 2.493-1.16s1.838 0.408 2.493 1.161c0.343 0.408 0.623 0.878 0.873 1.38 0.249 0.471 0.498 0.972 0.748 1.442l0.094 0.189c2.368 4.673 4.674 9.44 6.824 14.113v0.031c0.249 0.502 0.467 1.067 0.717 1.568 0.156 0.377 0.312 0.69 0.405 1.003 0.249 0.815 0.343 1.6 0.218 2.415h-0zM14.769 24.207c-1.682-2.132-2.773-4.14-3.147-5.833-0.156-0.721-0.187-1.349-0.093-1.913 0.062-0.502 0.249-0.941 0.498-1.318 0.592-0.846 1.589-1.38 2.742-1.38s2.181 0.502 2.742 1.38c0.249 0.377 0.436 0.816 0.498 1.318 0.093 0.565 0.062 1.223-0.093 1.913-0.374 1.662-1.465 3.669-3.147 5.833zM28.822 22.576c-0.156-0.376-0.312-0.784-0.467-1.129-0.249-0.564-0.499-1.098-0.717-1.6l-0.031-0.031c-2.15-4.705-4.456-9.472-6.886-14.175l-0.093-0.189c-0.249-0.47-0.499-0.972-0.748-1.474-0.312-0.565-0.623-1.16-1.122-1.725-0.997-1.254-2.431-1.944-3.958-1.944-1.558 0-2.96 0.69-3.989 1.882-0.467 0.564-0.81 1.16-1.122 1.725-0.249 0.502-0.499 1.003-0.748 1.474l-0.093 0.188c-2.399 4.704-4.736 9.472-6.886 14.176l-0.031 0.063c-0.218 0.502-0.468 1.035-0.717 1.599-0.167 0.372-0.323 0.748-0.467 1.129-0.405 1.16-0.53 2.258-0.374 3.387 0.343 2.352 1.901 4.328 4.051 5.206 0.81 0.345 1.651 0.502 2.524 0.502 0.249 0 0.561-0.031 0.81-0.063 1.028-0.126 2.088-0.47 3.116-1.066 1.278-0.721 2.493-1.756 3.864-3.261 1.371 1.505 2.617 2.54 3.864 3.261 1.029 0.596 2.088 0.941 3.116 1.066 0.249 0.032 0.561 0.063 0.81 0.063 0.873 0 1.745-0.157 2.524-0.502 2.181-0.878 3.708-2.885 4.051-5.206 0.249-1.098 0.125-2.195-0.28-3.356l0 0z">
            </path>
        </symbol>
        <symbol id="icon-basecamp" viewBox="0 0 39 32">
            <path fill="#b6deff" style="fill: var(--color6, #b6deff)"
                d="M19.449 0.001c-10.223 0-18.232 12.841-18.99 23.686 3.208 5.497 10.944 7.563 18.99 7.563s15.782-2.066 18.988-7.563c-0.758-10.845-8.766-23.686-18.989-23.686z">
            </path>
            <path fill="#6c6" style="fill: var(--color7, #6c6)"
                d="M35.766 21.104c0 0-2.258-4.819-4.553-7.631-2.297-2.813-5.101-5.876-6.759-5.876s-6.29 8.099-8.416 8.099c-2.126 0-3.231-3.671-5.844-3.671s-6.769 8.853-6.769 8.853l-0.281 1.501c0 0 1.443 6.317 16.541 6.317s16.305-6.213 16.305-6.213l-0.224-1.378z">
            </path>
            <path fill="#17ad49" style="fill: var(--color8, #17ad49)"
                d="M16.275 19.152c-2.345 0-3.547-2.284-4.199-3.694-0.586-1.27-0.687-3.275-2.35-3.332 0.163-0.064 0.321-0.102 0.468-0.102 2.614 0 3.718 3.671 5.844 3.671s6.759-8.099 8.416-8.099c0.312 0 0.664 0.109 1.046 0.302-0.282-0.037-0.644-0.011-0.923 0.265-0.536 0.529-5.399 10.987-8.302 10.987z">
            </path>
        </symbol>
        <symbol id="icon-ibm" viewBox="0 0 79 32">
            <path fill="#1f70c1" style="fill: var(--color9, #1f70c1)"
                d="M0.471 0.472v2.123h15.205v-2.123h-15.205zM17.83 0.472v2.123h21.669c0 0-2.213-2.123-5.145-2.123h-16.524zM43.75 0.472v2.123h13.109l-0.778-2.123h-12.331zM66.257 0.472l-0.778 2.123h12.99v-2.123h-12.212zM0.471 4.601v2.123h15.205v-2.123h-15.205zM17.83 4.604v2.12h24.183c0 0-0.282-1.634-0.775-2.12h-23.408zM43.75 4.604v2.12h14.546l-0.72-2.12h-13.826zM64.701 4.604l-0.72 2.12h14.488v-2.12h-13.768zM4.84 8.73v2.126h6.585v-2.126h-6.585zM22.2 8.73v2.126h6.585v-2.126h-6.585zM35.19 8.73v2.126h6.585c0 0 0.418-1.123 0.418-2.126l-7.003 0zM48.119 8.73v2.126h11.675l-0.778-2.126-10.897 0zM63.267 8.73l-0.781 2.126h11.733v-2.126h-10.952zM4.84 12.861v2.123h6.585v-2.123h-6.585zM22.2 12.861v2.123h16.82c0 0 1.407-1.089 1.855-2.123l-18.675 0zM48.119 12.861v2.123h6.585v-1.182l0.418 1.182h12.062l0.449-1.182v1.182h6.585v-2.123h-12.361l-0.656 1.798-0.659-1.798h-12.422zM4.84 16.989v2.123h6.585v-2.123h-6.585zM22.2 16.989v2.123h18.675c-0.448-1.030-1.855-2.123-1.855-2.123h-16.82zM48.119 16.989v2.123h6.585v-2.123h-6.585zM55.901 16.989l0.796 2.123h9.045l0.757-2.123h-10.598zM67.633 16.989v2.123h6.585v-2.123h-6.585zM4.84 21.118v2.123h6.585v-2.123h-6.585zM22.2 21.118v2.123h6.585v-2.123h-6.585zM35.19 21.118v2.123h7.003c0-1.002-0.418-2.123-0.418-2.123h-6.585zM48.119 21.118v2.123h6.585v-2.123h-6.585zM57.396 21.118l0.772 2.123h6.063l0.778-2.123h-7.613zM67.633 21.118v2.123h6.585v-2.123h-6.585zM0.59 25.247v2.126h15.206v-2.126l-15.206 0zM17.83 25.247v2.126h23.408c0.493-0.487 0.775-2.126 0.775-2.126l-24.183 0zM43.869 25.247v2.126h10.836v-2.126l-10.836 0zM58.894 25.247l0.793 2.126h3.085l0.745-2.126-4.623 0zM67.633 25.247v2.126h10.955v-2.126l-10.955 0zM0.59 29.378v2.123h15.206v-2.123h-15.206zM17.83 29.378v2.12h16.524c2.931 0 5.145-2.12 5.145-2.12l-21.669 0zM43.869 29.378v2.123h10.836v-2.123h-10.836zM60.398 29.378l0.763 2.117 0.131 0.003 0.775-2.12-1.669 0zM67.633 29.378v2.123h10.955v-2.123h-10.955z">
            </path>
        </symbol>
        <symbol id="icon-android" viewBox="0 0 27 32">
            <path fill="#fff" style="fill: var(--color10, #fff)"
                d="M8.388 0.514c-0.153 0.001-0.303 0.040-0.436 0.113-0.439 0.244-0.601 0.808-0.357 1.247l0.992 1.791c-2.39 1.479-3.974 4.004-3.974 6.887v0.536c-0.459-0.528-1.134-0.862-1.888-0.862-1.381 0-2.503 1.121-2.503 2.503v7.709c0 1.381 1.122 2.503 2.503 2.503 0.754 0 1.429-0.334 1.888-0.862v1.080c0 1.456 1.191 2.647 2.647 2.647h0.672v3.429c0 1.381 1.122 2.503 2.503 2.503s2.503-1.122 2.503-2.503v-3.429h1.162v3.429c0 1.381 1.122 2.503 2.503 2.503s2.503-1.122 2.503-2.503v-3.429h0.672c1.456 0 2.647-1.191 2.647-2.647v-1.080c0.459 0.528 1.134 0.862 1.888 0.862 1.381 0 2.503-1.122 2.503-2.503v-7.709c0-1.381-1.121-2.503-2.503-2.503-0.754 0-1.429 0.333-1.888 0.862v-0.471c0-0.027 0-0.049 0-0.065 0-2.882-1.587-5.406-3.977-6.884l0.995-1.794c0.243-0.439 0.082-1.004-0.357-1.247-0.134-0.073-0.284-0.112-0.436-0.113-0.325-0.003-0.643 0.168-0.811 0.471l-1.040 1.879c-1.017-0.375-2.124-0.581-3.279-0.581s-2.263 0.204-3.279 0.578l-1.040-1.876c-0.168-0.303-0.486-0.473-0.811-0.471z">
            </path>
            <path fill="#a4c639" style="fill: var(--color11, #a4c639)"
                d="M2.725 10.879c-1.031 0-1.851 0.82-1.851 1.851v7.709c0 1.031 0.82 1.851 1.851 1.851s1.851-0.82 1.851-1.851v-7.709c0-1.031-0.82-1.851-1.851-1.851zM24.311 10.879c-1.031 0-1.851 0.82-1.851 1.851v7.709c0 1.031 0.82 1.851 1.851 1.851s1.851-0.82 1.851-1.851v-7.709c0-1.031-0.82-1.851-1.851-1.851z">
            </path>
            <path fill="#a4c639" style="fill: var(--color11, #a4c639)"
                d="M10.434 19.676c-1.031 0-1.851 0.82-1.851 1.851v7.709c0 1.031 0.82 1.851 1.851 1.851s1.851-0.82 1.851-1.851v-7.709c0-1.031-0.82-1.851-1.851-1.851zM16.602 19.676c-1.031 0-1.851 0.82-1.851 1.851v7.709c0 1.031 0.82 1.851 1.851 1.851s1.851-0.82 1.851-1.851v-7.709c0-1.031-0.82-1.851-1.851-1.851z">
            </path>
            <path fill="#a4c639" style="fill: var(--color11, #a4c639)"
                d="M8.393 1.166c-0.044 0.001-0.087 0.012-0.125 0.034-0.132 0.073-0.175 0.225-0.102 0.357l1.304 2.355c-2.508 1.305-4.203 3.785-4.206 6.632h16.507c-0.003-2.847-1.698-5.327-4.206-6.632l1.304-2.355c0.073-0.132 0.030-0.284-0.102-0.357-0.038-0.022-0.081-0.033-0.125-0.034-0.094-0.001-0.182 0.046-0.232 0.136l-1.321 2.381c-1.080-0.479-2.292-0.748-3.571-0.748s-2.491 0.269-3.571 0.748l-1.321-2.381c-0.023-0.042-0.056-0.077-0.097-0.101s-0.088-0.036-0.135-0.035h-0zM5.264 11.196v11.964c-0.001 0.262 0.051 0.522 0.151 0.764s0.247 0.463 0.432 0.648c0.185 0.185 0.406 0.332 0.648 0.432s0.502 0.151 0.764 0.151h12.516c0.262 0.001 0.522-0.051 0.764-0.151s0.463-0.247 0.648-0.432c0.185-0.185 0.332-0.406 0.432-0.648s0.151-0.502 0.151-0.764v-11.963l-16.507-0z">
            </path>
            <path fill="#fff" style="fill: var(--color10, #fff)"
                d="M9.708 6.146c-0.377 0-0.689 0.312-0.689 0.689s0.312 0.689 0.689 0.689c0.377 0 0.689-0.312 0.689-0.689s-0.312-0.689-0.689-0.689zM17.327 6.146c-0.377 0-0.689 0.312-0.689 0.689s0.312 0.689 0.689 0.689c0.377 0 0.689-0.312 0.689-0.689s-0.312-0.689-0.689-0.689z">
            </path>
        </symbol>
        <symbol id="icon-appstore" viewBox="0 0 32 32">
            <path fill="#1A74E8"
                d="M7.155 0.12h17.689c3.807 0 6.893 3.086 6.893 6.893v17.689c0 3.807-3.086 6.893-6.893 6.893h-17.689c-3.807 0-6.893-3.086-6.893-6.893v-17.689c0-3.807 3.086-6.893 6.893-6.893z">
            </path>
            <path fill="#fff" style="fill: var(--color10, #fff)"
                d="M10.349 22.965l0.003 0.001-1.076 1.864c-0.393 0.68-1.263 0.914-1.943 0.521s-0.914-1.263-0.521-1.943l0.869-1.505c0.136-0.195 0.471-0.532 1.142-0.469 0 0 1.578 0.171 1.693 0.992 0 0 0.016 0.27-0.166 0.54zM25.613 18.205h-3.356c-0.229-0.015-0.328-0.097-0.368-0.144l-0.002-0.004-3.592-6.222-0.005 0.003-0.215-0.309c-0.353-0.54-0.914 0.841-0.914 0.841-0.669 1.539 0.095 3.288 0.361 3.817l4.99 8.642c0.393 0.68 1.263 0.914 1.943 0.521s0.914-1.263 0.521-1.943l-1.248-2.161c-0.024-0.052-0.066-0.195 0.19-0.195h1.695c0.786 0 1.423-0.637 1.423-1.423s-0.637-1.423-1.423-1.423v0zM19.095 20.138c0 0 0.179 0.911-0.514 0.911h-12.406c-0.786 0-1.423-0.637-1.423-1.423s0.637-1.423 1.423-1.423h3.189c0.515-0.030 0.637-0.327 0.637-0.327l0.003 0.001 4.162-7.211c0.076-0.139 0.013-0.271 0.002-0.292l-1.375-2.381c-0.393-0.68-0.16-1.55 0.521-1.943s1.55-0.16 1.943 0.521l0.638 1.104 0.637-1.102c0.393-0.68 1.263-0.914 1.943-0.521s0.914 1.263 0.521 1.943l-5.793 10.034c-0.025 0.061-0.033 0.157 0.155 0.174h3.463l0.001 0.034c0 0 2.001 0.031 2.274 1.9z">
            </path>
        </symbol>
        <symbol id="icon-airpay" viewBox="0 0 61 62" fill="none" xmlns="http://www.w3.org/2000/svg">
            <g clip-path="url(#clip0)">
                <path opacity="0.5" d="M30.428 9.51766V26.763L45.3921 18.1225V0.876953L30.428 9.51766Z"
                    fill="#13A049" />
                <path opacity="0.5" d="M30.428 9.51766L15.4641 0.876953V18.1584L30.428 26.7991V9.51766Z"
                    fill="#A2CC39" />
                <path opacity="0.9"
                    d="M45.3922 0.876953L30.428 9.51766L15.4641 0.876953L0.5 9.51766L30.428 26.7991L60.3383 9.51766L45.3922 0.876953Z"
                    fill="url(#paint0_linear)" />
                <path
                    d="M30.428 26.799L0.5 9.51758V26.799L15.4641 35.4397V52.7033L30.428 61.344L45.3922 52.7033V35.4397L60.3383 26.799V9.51758L30.428 26.799Z"
                    fill="url(#paint1_linear)" />
                <path d="M30.428 26.799V61.344L45.3921 52.7033V35.4397L60.3382 26.799V9.51758L30.428 26.799Z"
                    fill="url(#paint2_linear)" />
                <path opacity="0.05" d="M30.428 44.0625V61.3439L45.3921 52.7032L30.428 44.0625Z" fill="#231F20" />
                <path opacity="0.1" d="M30.428 61.3801V44.0986L15.4641 52.7393L30.428 61.3801Z" fill="#231F20" />
                <path opacity="0.05" d="M15.4641 18.1582L0.5 26.7989L15.4641 35.4396L30.428 26.7989L15.4641 18.1582Z"
                    fill="#231F20" />
                <path opacity="0.05"
                    d="M45.3921 18.1582L30.428 26.7989L45.3921 35.4396L60.3382 26.7989L45.3921 18.1582Z"
                    fill="#231F20" />
            </g>
            <defs>
                <linearGradient id="paint0_linear" x1="60.3455" y1="13.8357" x2="0.5" y2="13.8357"
                    gradientUnits="userSpaceOnUse">
                    <stop stop-color="#37BDA6" />
                    <stop offset="1" stop-color="#8AD3B8" />
                </linearGradient>
                <linearGradient id="paint1_linear" x1="60.3455" y1="35.4297" x2="0.5" y2="35.4297"
                    gradientUnits="userSpaceOnUse">
                    <stop offset="0.5" stop-color="#4BB6AD" />
                    <stop offset="1" stop-color="#78BBC1" />
                </linearGradient>
                <linearGradient id="paint2_linear" x1="30.4226" y1="35.4297" x2="60.3451" y2="35.4297"
                    gradientUnits="userSpaceOnUse">
                    <stop stop-color="#4379A7" />
                    <stop offset="1" stop-color="#7CC9B8" />
                </linearGradient>
                <clipPath id="clip0">
                    <rect width="60" height="60.7031" fill="white" transform="translate(0.5 0.876953)" />
                </clipPath>
            </defs>
        </symbol>

    </defs>
</svg>