<svg aria-hidden="true" style="position: absolute; width: 0; height: 0; overflow: hidden;" version="1.1"
    xmlns="http://www.w3.org/2000/svg" xmlns:xlink="http://www.w3.org/1999/xlink">
    <defs>
        <symbol id="icon-facebook" viewBox="0 0 32 32">
            <path fill="#fff" style="fill: var(--color1, #fff)"
                d="M27.589 3.798h-22.445c-0.54 0-0.976 0.436-0.976 0.976v22.445c0 0.54 0.436 0.976 0.976 0.976h22.445c0.54 0 0.976-0.436 0.976-0.976v-22.445c0-0.54-0.436-0.976-0.976-0.976zM24.771 10.918h-1.949c-1.528 0-1.824 0.726-1.824 1.793v2.351h3.647l-0.476 3.681h-3.172v9.451h-3.803v-9.448h-3.181v-3.684h3.181v-2.714c0-3.15 1.924-4.867 4.736-4.867 1.348 0 2.504 0.101 2.842 0.146v3.29h-0.003z">
            </path>
        </symbol>
        <symbol id="features-icon-alien" viewBox="0 0 31 32">
            <path fill="#02e4c0" style="fill: var(--color2, #02e4c0)"
                d="M12.853 14.288c1.578 2.624 1.346 5.712-0.541 6.96-1.887 1.216-4.702 0.080-6.295-2.544-1.578-2.624-1.33-5.744 0.557-6.96s4.702-0.080 6.279 2.544zM15.467 25.2c3.093 0 3.867-1.2 3.867-1.2s-0.773 3.2-3.867 3.2c-3.093 0-3.867-3.152-3.867-3.2 0 0 0.773 1.2 3.867 1.2zM24.36 11.744c1.887 1.216 2.134 4.336 0.557 6.96-1.593 2.624-4.408 3.76-6.295 2.544-1.887-1.248-2.119-4.336-0.541-6.96s4.393-3.76 6.279-2.544zM15.467 28.8c3.867 0 12.373-8.224 12.373-14.4s-5.553-11.2-12.373-11.2c-6.821 0-12.373 5.024-12.373 11.2s8.507 14.4 12.373 14.4zM15.467 0c8.507 0 15.467 6.464 15.467 14.4 0 6.528-8.785 17.6-15.467 17.6s-15.467-11.072-15.467-17.6c0-7.936 6.96-14.4 15.467-14.4z">
            </path>
        </symbol>
        <symbol id="features-icon-infinity" viewBox="0 0 69 32">
            <path fill="#02e4c0" style="fill: var(--color2, #02e4c0)"
                d="M53.516 0c-4.143 0-8.056 1.665-10.847 4.55l-20.227 18.558c-1.841 1.903-4.287 2.944-6.905 2.944-5.38 0-9.782-4.491-9.782-10.052s4.402-10.052 9.782-10.052c2.618 0 5.064 1.041 7.020 3.063l3.251 2.974 4.402-3.985-3.683-3.301c-1.441-1.495-3.154-2.68-5.040-3.486s-3.909-1.219-5.95-1.212c-8.574 0-15.537 7.197-15.537 16s6.963 16 15.537 16c4.143 0 8.056-1.665 10.847-4.55l20.227-18.558c1.841-1.903 4.287-2.944 6.905-2.944 5.38 0 9.782 4.491 9.782 10.052s-4.402 10.052-9.782 10.052c-2.589 0-5.064-1.041-7.020-3.063l-3.338-3.004-4.316 3.985 3.683 3.331c1.445 1.488 3.159 2.666 5.045 3.467s3.907 1.21 5.946 1.202c8.574 0 15.537-7.167 15.537-15.97 0-8.922-6.963-16-15.537-16z">
            </path>
        </symbol>
        <symbol id="features-icon-spoons" viewBox="0 0 35 32">
            <path fill="#02e4c0" style="fill: var(--color2, #02e4c0)"
                d="M9.528 18.145l5.031-5.031-11.004-10.987c-0.853-0.853-2.329-0.622-2.862 0.48-1.262 2.649-0.8 5.902 1.387 8.107l7.449 7.431zM21.582 14.927c2.72 1.262 6.542 0.373 9.369-2.453 3.396-3.396 4.053-8.267 1.44-10.88-2.595-2.596-7.467-1.956-10.88 1.44-2.827 2.827-3.715 6.649-2.453 9.369l-16.107 16.107c-0.332 0.332-0.519 0.783-0.519 1.253s0.187 0.921 0.519 1.253c0.332 0.332 0.783 0.519 1.253 0.519s0.921-0.187 1.253-0.519l11.004-10.969 10.987 10.987c0.165 0.165 0.36 0.295 0.575 0.384s0.446 0.135 0.678 0.135c0.233 0 0.463-0.046 0.678-0.135s0.41-0.22 0.575-0.384c0.165-0.165 0.295-0.36 0.384-0.575s0.135-0.446 0.135-0.678c0-0.233-0.046-0.463-0.135-0.678s-0.22-0.41-0.384-0.575l-10.987-10.987 2.613-2.613z">
            </path>
        </symbol>
        <symbol id="icon-footer-location" viewBox="0 0 31 32">
            <path fill="#fff" style="fill: var(--color1, #fff)"
                d="M15.66 18.611c2.879 0 5.22-2.341 5.22-5.22s-2.341-5.22-5.22-5.22-5.22 2.341-5.22 5.22c0 2.879 2.341 5.22 5.22 5.22zM15.66 10.781c1.439 0 2.61 1.171 2.61 2.61s-1.171 2.61-2.61 2.61c-1.439 0-2.61-1.171-2.61-2.61s1.171-2.61 2.61-2.61z">
            </path>
            <path fill="#fff" style="fill: var(--color1, #fff)"
                d="M14.903 28.808c0.221 0.158 0.485 0.243 0.757 0.243s0.536-0.085 0.757-0.243c0.397-0.281 9.721-7.013 9.683-15.417 0-5.756-4.683-10.44-10.44-10.44s-10.44 4.684-10.44 10.433c-0.038 8.41 9.286 15.143 9.683 15.423zM15.66 5.561c4.318 0 7.83 3.512 7.83 7.836 0.027 5.791-5.726 10.992-7.83 12.697-2.102-1.707-7.857-6.908-7.83-12.704 0-4.318 3.512-7.83 7.83-7.83z">
            </path>
        </symbol>
        <symbol id="icon-footer-phone" viewBox="0 0 31 32">
            <path fill="#fff" style="fill: var(--color1, #fff)"
                d="M20.741 1.298h-10.37c-2.152 0-3.889 1.737-3.889 3.889v20.741c0 2.152 1.737 3.889 3.889 3.889h10.37c2.152 0 3.889-1.737 3.889-3.889v-20.741c0-2.152-1.737-3.889-3.889-3.889zM18.148 27.224h-5.185v-1.296h5.185v1.296zM22.361 23.335h-13.611v-18.148h13.611v18.148z">
            </path>
        </symbol>
        <symbol id="icon-linkedin" viewBox="0 0 32 32">
            <path fill="#fff" style="fill: var(--color1, #fff)"
                d="M27.579 3.798h-22.445c-0.54 0-0.976 0.436-0.976 0.976v22.445c0 0.54 0.436 0.976 0.976 0.976h22.445c0.54 0 0.976-0.436 0.976-0.976v-22.445c0-0.54-0.436-0.976-0.976-0.976zM11.395 24.587h-3.62v-11.643h3.62v11.643zM9.587 11.351c-0.415 0-0.821-0.123-1.166-0.354s-0.614-0.558-0.773-0.942c-0.159-0.383-0.2-0.805-0.119-1.212s0.281-0.781 0.574-1.074c0.293-0.293 0.667-0.493 1.074-0.574s0.829-0.039 1.212 0.119 0.711 0.428 0.942 0.773c0.231 0.345 0.354 0.751 0.354 1.166-0.003 1.159-0.942 2.098-2.098 2.098zM24.948 24.587h-3.617v-5.663c0-1.351-0.024-3.086-1.882-3.086-1.882 0-2.171 1.47-2.171 2.989v5.761h-3.614v-11.643h3.47v1.592h0.049c0.482-0.915 1.662-1.882 3.425-1.882 3.666 0 4.34 2.412 4.34 5.547v6.386z">
            </path>
        </symbol>
        <symbol id="icon-menu-burger" viewBox="0 0 40 32">
            <path style="fill: var(--color1, #fff)"
                d="M6.641 8h26.566v2.667h-26.566v-2.667zM13.283 14.667h19.925v2.667h-19.925v-2.667zM21.585 21.333h11.623v2.667h-11.623v-2.667z">
            </path>
        </symbol>
        <symbol id="icon-twitter" viewBox="0 0 31 32">
            <path fill="#fff" style="fill: var(--color1, #fff)"
                d="M28.301 8.138c-0.933 0.402-1.949 0.692-2.995 0.805 1.086-0.645 1.899-1.664 2.287-2.867-1.019 0.606-2.135 1.031-3.3 1.256-0.487-0.52-1.075-0.935-1.729-1.217s-1.359-0.428-2.071-0.426c-2.882 0-5.2 2.336-5.2 5.203 0 0.403 0.049 0.805 0.128 1.192-4.315-0.226-8.164-2.287-10.722-5.444-0.466 0.796-0.711 1.703-0.708 2.626 0 1.805 0.918 3.397 2.318 4.334-0.825-0.033-1.63-0.259-2.351-0.662v0.064c0 2.528 1.787 4.623 4.169 5.105-0.447 0.116-0.907 0.176-1.369 0.177-0.338 0-0.659-0.034-0.982-0.079 0.659 2.061 2.577 3.559 4.861 3.608-1.787 1.4-4.025 2.223-6.456 2.223-0.436 0-0.839-0.015-1.256-0.064 2.305 1.479 5.041 2.333 7.987 2.333 9.564 0 14.797-7.923 14.797-14.8 0-0.226 0-0.451-0.015-0.677 1.012-0.741 1.9-1.659 2.607-2.69z">
            </path>
        </symbol>
    </defs>
</svg>